# AST/ASF file generated using VICON BodyLanguage
# -----------------------------------------------
:version 1.10
:name VICON
:units
  mass 1.0
  length 0.45
  angle deg
:documentation
   .ast/.asf automatically generated from VICON data using
   VICON BodyBuilder and BodyLanguage model FoxedUp or BRILLIANT.MOD
:root
   order TX TY TZ RX RY RZ
   axis XYZ
   position 0 0 0  
   orientation 0 0 0 
:bonedata
  begin
     id 1 
     name lhipjoint
     direction 0.561001 -0.76473 0.316963 
     length 2.4722 
     axis 0 0 0  XYZ
  end
  begin
     id 2 
     name lfemur
     direction 0.34202 -0.939693 0  
     length 7.59403  
     axis 0 0 20  XYZ
    dof rx ry rz
    limits (-160.0 20.0)
           (-70.0 70.0)
           (-60.0 70.0)
  end
  begin
     id 3 
     name ltibia
     direction 0.34202 -0.939693 0   
     length 7.89655   
     axis 0 0 20   XYZ
    dof rx
    limits (-10.0 170.0)
  end
  begin
     id 4 
     name lfoot
     direction 0.061296 -0.168409 0.98381   
     length 2.73287   
     axis -90 7.62852e-016 20   XYZ
    dof rx rz
    limits (-45.0 90.0)
           (-70.0 20.0)
  end
  begin
     id 5 
     name ltoes
     direction 1.53547e-011 -4.21984e-011 1   
     length 1.37057   
     axis -90 7.62852e-016 20   XYZ
    dof rx
    limits (-90.0 20.0)
  end
  begin
     id 6 
     name rhipjoint
     direction -0.559611 -0.765599 0.317323   
     length 2.46939  
     axis 0 0 0  XYZ 
  end
  begin
     id 7 
     name rfemur
     direction -0.34202 -0.939693 0   
     length 7.53712   
     axis 0 0 -20   XYZ
    dof rx ry rz
    limits (-160.0 20.0)
           (-70.0 70.0)
           (-70.0 60.0)
  end
  begin
     id 8 
     name rtibia
     direction -0.34202 -0.939693 0   
     length 8.12549   
     axis 0 0 -20   XYZ
    dof rx
    limits (-10.0 170.0)
 end
 begin
     id 9 
     name rfoot
     direction -0.066984 -0.184037 0.980634   
     length 2.67541  
     axis -90 -7.62852e-016 -20   XYZ
    dof rx rz
    limits (-45.0 90.0)
           (-20.0 70.0)
  end
  begin
     id 10 
     name rtoes
     direction -1.53549e-011 -4.21786e-011 1   
     length 1.34085   
     axis -90 -7.62852e-016 -20   XYZ
    dof rx
    limits (-90.0 20.0)
  end
  begin
     id 11 
     name lowerback
     direction -0.0522728 0.992594 -0.109658   
     length 2.05633   
     axis 0 0 0   XYZ
    dof rx ry rz
    limits (-20.0 45.0)
           (-30.0 30.0)
           (-30.0 30.0)
  end
  begin
     id 12 
     name upperback
     direction 0.00589338 0.999977 0.00335704   
     length 2.05845   
     axis 0 0 0   XYZ
    dof rx ry rz
    limits (-20.0 45.0)
           (-30.0 30.0)
           (-30.0 30.0)
  end
  begin
     id 13 
     name thorax
     direction 0.0292928 0.998059 0.0549487   
     length 2.09281   
     axis 0 0 0   XYZ
    dof rx ry rz
    limits (-20.0 45.0)
           (-30.0 30.0)
           (-30.0 30.0)
  end
  begin
     id 14 
     name lowerneck
     direction 0.0356368 0.980775 0.191858   
     length 1.84767   
     axis 0 0 0   XYZ
    dof rx ry rz
    limits (-20.0 45.0)
           (-30.0 30.0)
           (-30.0 30.0)
  end
  begin
     id 15 
     name upperneck
     direction -0.0227605 0.98931 -0.14404   
     length 1.89582   
     axis 0 0 0   XYZ
    dof rx ry rz
    limits (-20.0 45.0)
           (-30.0 30.0)
           (-30.0 30.0)
  end
  begin
     id 16
     name head
     direction -0.00932985 0.997511 -0.0698904  
     length 1.90213  
     axis 0 0 0   XYZ
    dof rx ry rz
    limits (-20.0 45.0)
           (-30.0 30.0)
           (-30.0 30.0)
  end
  begin
     id 17 
     name lclavicle
     direction 0.873442 0.479511 0.0846686  
     length 3.41193  
     axis 0 0 0   XYZ
    dof ry rz
    limits (-20.0 10.0)
           (0.0 20.0)
  end
  begin
     id 18 
     name lhumerus
     direction 1 -4.4897e-011 -5.62117e-018   
     length 5.59864   
     axis 180 -30 -90   XYZ
    dof rx ry rz
    limits (-60.0 90.0)
           (-90.0 90.0)
           (-90.0 90.0)
  end
  begin
     id 19
     name lradius
     direction 1 -4.48966e-011 -6.26295e-027   
     length 3.59542   
     axis 180 -30 -90   XYZ
    dof rx
    limits (-10.0 170.0)
  end
  begin
     id 20
     name lwrist
     direction 1 -4.48947e-011 -1.74096e-026   
     length 1.79771   
     axis 1.04567e-014 90 90   XYZ
    dof ry
    limits (-180.0 0.0)
 end
  begin
     id 21 
     name lhand
     direction 1 -4.49085e-011 -3.48469e-026   
     length 0.572014   
     axis 2.22196e-014 90 90   XYZ
    dof rx rz
    limits (-90.0 90.0)
           (-45.0 45.0)
  end
  begin
     id 22 
     name lfingers
     direction 1 -4.48884e-011 -6.96135e-026   
     length 0.461173   
     axis 4.44383e-014 90 90   XYZ
    dof rx
    limits (0.0 90.0)
  end
  begin
     id 23
     name lthumb
     direction 0.707107 -6.34976e-011 0.707107   
     length 0.662154   
     axis -90 45 -5.4397e-014   XYZ
    dof rx rz
    limits (-45.0 45.0)
           (-45.0 45.0)
  end
  begin
     id 24 
     name rclavicle
     direction -0.890242 0.443271 0.104786   
     length 3.46753  
     axis 0 0 0   XYZ 
    dof ry rz
    limits (-10.0 20.0)
           (-20.0 0.0)
  end
  begin
     id 25 
     name rhumerus
     direction -1 -4.48963e-011 -5.41723e-018  
     length 5.8094   
     axis 180 30 90   XYZ
    dof rx ry rz
    limits (-90.0 60.0)
           (-90.0 90.0)
           (-90.0 90.0)
  end
  begin
     id 26 
     name rradius
     direction -1 -4.48958e-011 -6.51059e-027   
     length 3.66953   
     axis 180 30 90   XYZ
    dof rx
    limits (-10.0 170.0)
  end
  begin
     id 27 
     name rwrist
     direction -1 -4.48975e-011 -1.74124e-026   
     length 1.83476   
     axis 1.04567e-014 -90 -90   XYZ
    dof ry
    limits (-180.0 0.0)
  end
  begin
     id 28
     name rhand
     direction -1 -4.49013e-011 -3.48326e-026   
     length 0.57843   
     axis 2.22196e-014 -90 -90   XYZ
    dof rx rz
    limits (-90.0 90.0)
           (-45.0 45.0)
  end
  begin
     id 29
     name rfingers
     direction -1 -4.49023e-011 -6.9669e-026   
     length 0.466345   
     axis 4.44383e-014 -90 -90   XYZ
    dof rx
    limits (0.0 90.0)
  end
  begin
     id 30
     name rthumb
     direction -0.707107 -6.34926e-011 0.707107   
     length 0.669581   
     axis -90 -45 5.4397e-014   XYZ
    dof rx rz
    limits (-45.0 45.0)
           (-45.0 45.0)
  end
:hierarchy
  begin
    root lhipjoint rhipjoint lowerback
    lhipjoint lfemur
    lfemur ltibia
    ltibia lfoot
    lfoot ltoes
    rhipjoint rfemur
    rfemur rtibia
    rtibia rfoot
    rfoot rtoes
    lowerback upperback
    upperback thorax
    thorax lowerneck lclavicle rclavicle
    lowerneck upperneck
    upperneck head
    lclavicle lhumerus
    lhumerus lradius
    lradius lwrist
    lwrist lhand lthumb
    lhand lfingers
    rclavicle rhumerus
    rhumerus rradius
    rradius rwrist
    rwrist rhand rthumb
    rhand rfingers
  end

#!OML:ASF H:\SkateBoarding\Project 1\Capture day 1\Session 1\Skater.ASF
:FULLY-SPECIFIED
:DEGREES
64
root -12.8022 19.6696 -25.5106 4.01467 46.9418 0.996031
lowerback 11.6892 -0.595653 -2.84358
upperback -0.691107 -1.07938 1.44113
thorax -7.22439 -0.385004 3.32424
lowerneck -19.752 -5.90469 -4.53092
upperneck 33.7616 -7.46009 1.8168
head 15.4226 -3.34392 0.1683
rclavicle -5.78463e-014 -8.34896e-015
rhumerus -32.5111 14.5614 -86.3995
rradius 42.5922
rwrist -13.3866
rhand -37.4537 0.964857
rfingers 7.12502
rthumb -10.5123 -28.7523
lclavicle -5.78463e-014 -8.34896e-015
lhumerus -57.817 -11.2394 91.4842
lradius 62.5248
lwrist 34.0188
lhand -25.2006 15.2053
lfingers 7.12502
lthumb 1.31778 45.181
rfemur -20.3545 3.42923 15.9208
rtibia 41.1399
rfoot -29.4871 4.1492
rtoes -11.269
lfemur -18.1626 -13.1418 -12.8674
ltibia 53.1756
lfoot -7.31584 -0.156538
ltoes -9.75389
65
root -12.7851 19.6232 -25.2608 4.16225 46.5278 1.24702
lowerback 11.9661 -0.536248 -3.14661
upperback -0.581758 -1.04507 1.49055
thorax -7.26176 -0.355768 3.54772
lowerneck -19.3017 -6.04156 -4.45699
upperneck 33.188 -7.69734 1.81305
head 15.054 -3.45398 0.127534
rclavicle -3.71727e-014 -7.95139e-016
rhumerus -32.0927 13.9137 -86.0205
rradius 42.3165
rwrist -13.2517
rhand -37.4213 0.839239
rfingers 7.12502
rthumb -10.4811 -28.8795
lclavicle -3.71727e-014 -7.95139e-016
lhumerus -57.2446 -11.0835 91.4629
lradius 61.9872
lwrist 34.084
lhand -25.1586 14.9293
lfingers 7.12502
lthumb 1.35835 44.9048
rfemur -21.0528 3.79456 15.5643
rtibia 42.3439
rfoot -28.9424 4.20117
rtoes -10.3643
lfemur -18.0097 -14.2827 -12.5856
ltibia 51.4916
lfoot -6.43832 -1.35172
ltoes -8.90472
66
root -12.763 19.5491 -25.0391 4.51269 46.0792 1.49523
lowerback 12.1973 -0.561264 -3.09686
upperback -0.533228 -1.07888 1.4598
thorax -7.33947 -0.373303 3.49762
lowerneck -19.6402 -5.85975 -4.28503
upperneck 33.1655 -7.41907 1.64514
head 15.0905 -3.33693 0.0716933
rclavicle 9.88457e-014 -9.14409e-015
rhumerus -31.7056 13.4781 -85.7452
rradius 42.1552
rwrist -13.0018
rhand -38.2292 0.910267
rfingers 7.12502
rthumb -11.2604 -28.7675
lclavicle 9.88457e-014 -9.14409e-015
lhumerus -56.5374 -10.8232 91.3699
lradius 61.3271
lwrist 34.1205
lhand -25.3242 14.8595
lfingers 7.12502
lthumb 1.19846 44.8359
rfemur -22.2543 3.95736 15.0588
rtibia 43.7988
rfoot -29.2816 4.39466
rtoes -11.7072
lfemur -17.9982 -15.5087 -12.3001
ltibia 49.7595
lfoot -6.06321 -2.45514
ltoes -5.88555
67
root -12.7477 19.4779 -24.7963 4.75288 45.5651 1.76878
lowerback 12.3556 -0.4474 -3.42626
upperback -0.390374 -0.975996 1.48302
thorax -7.2795 -0.313221 3.69221
lowerneck -18.8814 -6.16888 -4.20858
upperneck 32.2429 -7.95413 1.75694
head 14.5181 -3.56902 0.0377516
rclavicle 3.75703e-014 -5.96354e-015
rhumerus -31.341 12.6798 -85.3395
rradius 42.0766
rwrist -12.7865
rhand -38.4556 0.661187
rfingers 7.12502
rthumb -11.4787 -29.0045
lclavicle 3.75703e-014 -5.96354e-015
lhumerus -55.7257 -10.7693 91.3408
lradius 60.485
lwrist 34.0983
lhand -25.2029 14.5765
lfingers 7.12502
lthumb 1.31558 44.5522
rfemur -23.3251 4.31353 14.6114
rtibia 45.3733
rfoot -29.7149 4.65998
rtoes -12.5874
lfemur -17.8294 -16.2906 -12.1077
ltibia 47.7997
lfoot -5.71107 -3.29511
ltoes -5.57267
68
root -12.729 19.3873 -24.5663 5.04797 45.0605 2.10889
lowerback 12.6676 -0.426923 -3.6092
upperback -0.286765 -0.986056 1.45192
thorax -7.34206 -0.311343 3.77056
lowerneck -19.1157 -6.03663 -4.08421
upperneck 32.1313 -7.76322 1.66577
head 14.5006 -3.48631 0.0087476
rclavicle -5.33737e-014 5.56597e-015
rhumerus -30.9323 12.0892 -85.0303
rradius 42.0378
rwrist -12.9694
rhand -37.9031 0.591881
rfingers 7.12502
rthumb -10.9458 -29.1028
lclavicle -5.33737e-014 5.56597e-015
lhumerus -54.8144 -10.5009 91.2068
lradius 59.4688
lwrist 33.9675
lhand -24.8963 14.0285
lfingers 7.12502
lthumb 1.61172 44.0022
rfemur -24.5514 4.44019 14.0337
rtibia 47.1066
rfoot -29.401 5.78624
rtoes -11.8734
lfemur -17.5711 -17.1131 -11.9975
ltibia 45.812
lfoot -5.68565 -4.18917
ltoes -2.92312
69
root -12.7128 19.2908 -24.3303 5.40963 44.5358 2.5515
lowerback 12.9264 -0.467807 -4.0088
upperback -0.144632 -1.10448 1.48021
thorax -7.31792 -0.355927 4.05406
lowerneck -19.2774 -5.85782 -4.10769
upperneck 31.9026 -7.48341 1.66335
head 14.4245 -3.37497 0.0602154
rclavicle -2.73329e-014 -1.39149e-014
rhumerus -30.4737 11.9424 -84.796
rradius 41.9356
rwrist -13.094
rhand -38.0912 0.662625
rfingers 7.12502
rthumb -11.1272 -29.0224
lclavicle -2.73329e-014 -1.39149e-014
lhumerus -53.8763 -10.0028 91.1223
lradius 58.5437
lwrist 33.9232
lhand -25.3225 14.5347
lfingers 7.12502
lthumb 1.20007 44.5111
rfemur -25.8139 4.68384 13.3691
rtibia 48.8794
rfoot -29.3092 6.75937
rtoes -11.512
lfemur -17.2362 -17.8339 -12.0056
ltibia 43.7251
lfoot -5.65951 -4.93265
ltoes 0.71201
70
root -12.6964 19.1944 -24.0983 5.73019 43.9727 2.89295
lowerback 13.16 -0.431292 -4.26407
upperback -0.00596383 -1.10342 1.44454
thorax -7.29735 -0.349163 4.16449
lowerneck -19.6215 -5.71442 -3.92123
upperneck 31.8328 -7.28389 1.53316
head 14.4456 -3.28463 0.00324007
rclavicle 1.35174e-014 -1.51076e-014
rhumerus -30.0735 11.5446 -84.5705
rradius 41.9816
rwrist -13.2723
rhand -39.8729 1.18215
rfingers 7.12502
rthumb -12.8452 -28.4026
lclavicle 1.35174e-014 -1.51076e-014
lhumerus -52.8921 -9.80991 90.9893
lradius 57.5385
lwrist 34.2835
lhand -25.1767 14.0029
lfingers 7.12502
lthumb 1.34086 43.9784
rfemur -27.1751 4.79558 12.7479
rtibia 50.6703
rfoot -29.3339 7.84344
rtoes -11.7352
lfemur -16.9199 -18.3183 -11.9569
ltibia 41.6897
lfoot -5.5146 -5.45232
ltoes 2.43495
71
root -12.6805 19.0939 -23.8599 6.03524 43.3294 3.28763
lowerback 13.4751 -0.585773 -3.48494
upperback 0.0379463 -1.27347 0.462119
thorax -7.44766 -0.475677 2.71184
lowerneck -19.3158 -5.49202 -3.12641
upperneck 31.5355 -7.47337 2.17549
head 14.2448 -3.18978 0.106256
rclavicle -2.98177e-016 6.55989e-015
rhumerus -29.9417 9.99984 -85.6878
rradius 41.929
rwrist -13.2578
rhand -39.3654 1.28343
rfingers 7.12502
rthumb -12.356 -28.3314
lclavicle -2.98177e-016 6.55989e-015
lhumerus -52.197 -10.529 89.6404
lradius 56.5735
lwrist 34.7982
lhand -25.1957 13.8866
lfingers 7.12502
lthumb 1.32255 43.8622
rfemur -28.5153 4.92776 12.0985
rtibia 52.5048
rfoot -29.196 8.69391
rtoes -12.1689
lfemur -16.5058 -18.6486 -12.0225
ltibia 39.7262
lfoot -5.07024 -6.30376
ltoes 5.78238
72
root -12.6612 18.9916 -23.6277 6.40198 42.5896 3.78679
lowerback 13.8299 -0.606495 -3.58697
upperback 0.114238 -1.35228 0.143632
thorax -7.56574 -0.513723 2.45257
lowerneck -19.4717 -5.25118 -2.6857
upperneck 31.4208 -7.25275 2.1132
head 14.1959 -3.05384 0.0438102
rclavicle -3.12837e-014 6.95746e-015
rhumerus -29.7784 9.71348 -85.9685
rradius 42.094
rwrist -13.4237
rhand -39.225 0.890013
rfingers 7.12502
rthumb -12.2206 -28.733
lclavicle -3.12837e-014 6.95746e-015
lhumerus -51.3598 -10.5143 89.1931
lradius 55.5927
lwrist 35.2552
lhand -25.2934 13.869
lfingers 7.12502
lthumb 1.22825 43.8452
rfemur -29.9142 5.15525 11.2921
rtibia 54.3278
rfoot -28.6853 9.61755
rtoes -11.5553
lfemur -16.0748 -18.7287 -12.2768
ltibia 37.8734
lfoot -5.14251 -5.68772
ltoes 5.33618
73
root -12.6444 18.8778 -23.3972 6.89416 41.9736 4.26859
lowerback 13.9497 -0.576245 -4.16458
upperback 0.219514 -1.39991 0.225448
thorax -7.5018 -0.516453 2.87749
lowerneck -19.5583 -5.14919 -2.71871
upperneck 31.1586 -7.03848 1.97818
head 14.0874 -2.99218 0.0334223
rclavicle 5.24295e-014 -3.97569e-015
rhumerus -29.5138 9.84952 -85.6695
rradius 42.3999
rwrist -13.9835
rhand -39.2813 0.585138
rfingers 7.12502
rthumb -12.2749 -29.0346
lclavicle 5.24295e-014 -3.97569e-015
lhumerus -50.166 -10.275 89.322
lradius 54.3308
lwrist 35.6453
lhand -25.5236 14.1226
lfingers 7.12502
lthumb 1.00589 44.1
rfemur -31.5468 5.01601 10.4812
rtibia 56.2285
rfoot -28.1582 10.4984
rtoes -11.1574
lfemur -15.889 -18.6749 -12.5097
ltibia 36.1565
lfoot -4.24462 -6.28005
ltoes 8.17004
74
root -12.6208 18.7551 -23.1635 7.14411 41.0606 4.76899
lowerback 14.0962 -0.320878 -4.62927
upperback 0.426957 -1.14774 0.0628909
thorax -7.37588 -0.38589 2.91744
lowerneck -19.4028 -5.14224 -2.40832
upperneck 30.7738 -7.10269 1.89768
head 13.8687 -3.00648 -0.0544
rclavicle -7.44946e-014 5.76476e-015
rhumerus -29.4566 9.35821 -85.5382
rradius 42.8473
rwrist -14.2846
rhand -39.5003 0.374326
rfingers 7.12502
rthumb -12.486 -29.2327
lclavicle -7.44946e-014 5.76476e-015
lhumerus -49.0637 -10.7753 89.3085
lradius 53.2072
lwrist 36.1376
lhand -25.4348 14.3129
lfingers 7.12502
lthumb 1.09165 44.2898
rfemur -32.9544 5.29139 9.61742
rtibia 58.1142
rfoot -29.3294 10.5488
rtoes -11.7484
lfemur -15.2569 -18.1643 -12.9805
ltibia 34.732
lfoot -3.86005 -6.14828
ltoes 9.51625
75
root -12.5998 18.6231 -22.9292 7.39125 40.2725 5.22921
lowerback 14.4744 -0.340618 -4.74705
upperback 0.493128 -1.23435 -0.257981
thorax -7.51471 -0.425783 2.66543
lowerneck -19.4474 -4.92351 -2.07231
upperneck 30.6418 -6.90635 1.91371
head 13.8016 -2.88459 -0.06975
rclavicle 1.9953e-014 6.55989e-015
rhumerus -29.4952 9.34886 -85.9327
rradius 43.2478
rwrist -14.6393
rhand -39.8058 0.229187
rfingers 7.12502
rthumb -12.7805 -29.3596
lclavicle 1.9953e-014 6.55989e-015
lhumerus -48.1082 -11.0025 88.919
lradius 52.2035
lwrist 36.8653
lhand -25.6167 14.7302
lfingers 7.12502
lthumb 0.915911 44.708
rfemur -34.4061 5.29761 8.76109
rtibia 59.9638
rfoot -29.0451 11.4131
rtoes -12.0923
lfemur -14.8161 -17.6488 -13.4648
ltibia 33.9434
lfoot -3.54243 -6.83672
ltoes 13.0588
76
root -12.5741 18.4892 -22.6992 7.61168 39.3673 5.61767
lowerback 14.6204 -0.278598 -4.88062
upperback 0.643348 -1.19349 -0.493586
thorax -7.44054 -0.408817 2.48202
lowerneck -19.508 -4.74376 -1.82459
upperneck 30.4626 -6.71697 1.88013
head 13.7204 -2.78385 -0.091372
rclavicle 7.65321e-014 4.96962e-016
rhumerus -29.4383 9.23645 -86.0724
rradius 43.84
rwrist -15.3034
rhand -39.9257 0.3705
rfingers 7.12502
rthumb -12.8962 -29.211
lclavicle 7.65321e-014 4.96962e-016
lhumerus -46.8284 -11.2953 88.6794
lradius 51.0181
lwrist 37.3991
lhand -25.111 14.362
lfingers 7.12502
lthumb 1.40437 44.3371
rfemur -35.8896 5.51557 7.89405
rtibia 61.6987
rfoot -28.4774 12.6015
rtoes -11.1263
lfemur -14.3338 -16.562 -14.0474
ltibia 34.0084
lfoot -4.12277 -8.28246
ltoes 16.1532
77
root -12.5487 18.3713 -22.4735 7.76791 38.4958 5.85109
lowerback 14.5289 -0.10362 -5.3899
upperback 0.888696 -1.015 -0.303015
thorax -7.12704 -0.314338 2.9336
lowerneck -19.6323 -4.63827 -1.88462
upperneck 30.2143 -6.44157 1.60113
head 13.6238 -2.71687 -0.143878
rclavicle 6.21202e-015 -1.88845e-014
rhumerus -29.135 9.58449 -85.6177
rradius 44.2785
rwrist -15.7795
rhand -40.1799 0.427244
rfingers 7.12502
rthumb -13.1412 -29.1387
lclavicle 6.21202e-015 -1.88845e-014
lhumerus -45.2957 -11.3407 88.9502
lradius 49.8765
lwrist 37.6239
lhand -25.1556 15.3226
lfingers 7.12502
lthumb 1.36133 45.298
rfemur -37.3651 5.63037 7.11798
rtibia 63.2796
rfoot -27.8995 13.587
rtoes -10.6891
lfemur -13.8723 -15.2546 -14.5977
ltibia 34.8928
lfoot -6.03642 -9.51608
ltoes 18.4017
